<?xml version="1.0" encoding="UTF-8"?>
<svg version="1.1" xmlns="http://www.w3.org/2000/svg" width="298" height="466">
<path d="M0,0 L298,0 L298,466 L0,466 Z " fill="#FEFEFE" transform="translate(0,0)"/>
<path d="M0,0 L93,0 L101,5 L104,10 L104,19 L101,25 L96,29 L90,30 L91,89 L93,93 L101,97 L117,105 L128,112 L141,123 L151,133 L161,146 L172,165 L180,186 L184,205 L184,240 L181,257 L176,273 L168,291 L159,305 L151,315 L144,322 L139,327 L130,335 L116,344 L100,352 L87,357 L62,362 L31,362 L10,358 L-9,351 L-26,342 L-42,330 L-54,319 L-63,308 L-73,293 L-82,274 L-87,259 L-90,244 L-90,205 L-86,186 L-79,167 L-70,150 L-61,138 L-50,126 L-43,119 L-28,108 L-12,99 L0,94 L3,90 L4,30 L-3,29 L-8,24 L-10,20 L-10,9 L-4,2 Z " fill="#FDFDFC" transform="translate(102,93)"/>
<path d="M0,0 L93,0 L101,5 L104,10 L104,19 L101,25 L96,29 L90,30 L91,89 L93,93 L101,97 L117,105 L128,112 L141,123 L151,133 L161,146 L172,165 L180,186 L184,205 L184,240 L181,257 L176,273 L168,291 L159,305 L151,315 L144,322 L139,327 L130,335 L116,344 L100,352 L87,357 L62,362 L31,362 L10,358 L-9,351 L-26,342 L-42,330 L-54,319 L-63,308 L-73,293 L-82,274 L-87,259 L-90,244 L-90,205 L-86,186 L-79,167 L-70,150 L-61,138 L-50,126 L-43,119 L-28,108 L-12,99 L0,94 L3,90 L4,30 L-3,29 L-8,24 L-10,20 L-10,9 L-4,2 Z M2,10 L-1,13 L-1,18 L2,21 L14,21 L13,89 L9,98 L3,103 L-13,110 L-29,120 L-44,133 L-53,143 L-63,158 L-71,173 L-77,190 L-79,198 L-81,213 L-81,235 L-77,259 L-69,280 L-60,296 L-52,306 L-43,316 L-32,326 L-17,336 L2,345 L18,350 L32,352 L62,352 L78,349 L94,344 L111,336 L124,327 L137,316 L147,305 L156,292 L164,277 L170,260 L173,249 L175,234 L175,211 L172,194 L167,178 L158,159 L148,145 L139,135 L134,130 L123,120 L110,112 L89,102 L83,95 L81,89 L80,21 L91,21 L94,19 L94,12 L92,10 Z " fill="#46754C" transform="translate(102,93)"/>
<path d="M0,0 L15,0 L24,3 L28,1 L41,1 L48,6 L49,8 L59,9 L68,14 L73,21 L74,24 L74,32 L71,40 L64,46 L56,49 L52,49 L52,71 L56,84 L59,93 L40,103 L35,104 L27,91 L18,81 L6,75 L3,75 L-2,80 L-8,83 L-21,83 L-29,77 L-32,72 L-33,68 L-33,59 L-28,51 L-27,48 L-28,46 L-28,36 L-23,28 L-19,25 L-16,25 L-16,17 L-10,7 L-2,1 Z " fill="#437348" transform="translate(67,270)"/>
<path d="M0,0 L11,0 L25,7 L31,14 L33,18 L33,27 L29,35 L20,45 L11,56 L-2,70 L-11,81 L-21,92 L-26,98 L-29,100 L-34,100 L-38,95 L-38,88 L-33,73 L-29,63 L-24,65 L-14,69 L-19,64 L-27,59 L-25,50 L-22,41 L-17,42 L-7,47 L-2,48 L-3,45 L-19,36 L-18,28 L-14,18 L-8,20 L4,26 L8,27 L7,23 L2,21 L-11,13 L-10,8 L-6,3 Z " fill="#D27838" transform="translate(176,263)"/>
<path d="M0,0 L9,0 L20,4 L28,11 L33,20 L33,36 L30,44 L24,51 L15,56 L11,57 L-1,57 L-11,53 L-16,49 L-21,41 L-23,36 L-23,23 L-19,13 L-13,6 L-4,1 Z " fill="#D27436" transform="translate(126,377)"/>
<path d="M0,0 L3,1 L9,11 L13,25 L13,43 L11,51 L6,63 L-2,73 L-10,80 L-22,86 L-34,89 L-54,89 L-67,84 L-78,77 L-85,70 L-88,66 L-86,62 L-81,61 L-74,69 L-63,76 L-52,80 L-33,80 L-21,76 L-10,69 L-2,59 L4,43 L4,26 L0,13 L-4,6 L-4,3 Z " fill="#E0B746" transform="translate(244,313)"/>
<path d="M0,0 L13,0 L22,4 L30,11 L35,22 L35,35 L32,44 L25,53 L14,59 L-2,63 L-10,70 L-13,77 L-15,76 L-15,66 L-9,58 L-2,54 L16,48 L20,46 L22,42 L26,32 L26,23 L22,15 L21,12 L17,10 L12,8 L0,8 L-6,12 L-10,18 L-10,26 L-7,32 L-2,35 L4,35 L9,32 L10,30 L10,22 L9,19 L7,19 L8,17 L13,22 L14,23 L14,30 L11,35 L6,39 L3,40 L-4,40 L-13,34 L-17,26 L-17,17 L-13,9 L-5,2 Z " fill="#B9C67D" transform="translate(162,8)"/>
<path d="M0,0 L10,0 L18,4 L22,9 L24,13 L24,23 L20,31 L14,36 L8,38 L1,38 L-7,34 L-12,28 L-14,22 L-14,14 L-10,7 L-3,1 Z " fill="#EFB675" transform="translate(126,387)"/>
<path d="M0,0 L4,1 L9,5 L16,15 L19,25 L19,36 L17,46 L13,44 L6,38 L0,29 L-3,20 L-3,8 Z " fill="#4A764E" transform="translate(128,207)"/>
<path d="M0,0 L7,0 L13,3 L17,8 L18,10 L18,17 L15,23 L10,27 L7,28 L-1,28 L-8,23 L-10,19 L-10,9 L-6,3 Z " fill="#BDC980" transform="translate(151,174)"/>
<path d="M0,0 L10,1 L32,5 L35,7 L35,15 L29,25 L25,29 L19,29 L9,15 L0,2 Z " fill="#DEB446" transform="translate(206,348)"/>
<path d="M0,0 L4,1 L20,26 L20,31 L12,36 L-4,36 L-5,35 L-5,24 Z " fill="#DEB546" transform="translate(201,352)"/>
<path d="M0,0 L5,1 L11,13 L11,23 L9,25 L-1,25 L-25,22 L-25,18 L-7,5 Z " fill="#DFB545" transform="translate(232,323)"/>
<path d="M0,0 L3,0 L3,6 L-1,20 L-5,33 L-7,34 L-13,34 L-19,30 L-26,23 L-27,19 L-9,6 Z " fill="#DFB547" transform="translate(195,350)"/>
<path d="M0,0 L10,0 L16,5 L18,9 L17,18 L13,23 L8,25 L1,25 L-5,21 L-7,17 L-7,7 L-2,1 Z " fill="#B6C47C" transform="translate(116,51)"/>
<path d="M0,0 L7,0 L11,4 L11,10 L5,20 L-10,36 L-14,40 L-16,40 L-15,34 L-9,15 L-3,3 Z " fill="#47754F" transform="translate(213,224)"/>
<path d="M0,0 L7,0 L13,4 L15,7 L15,17 L10,22 L9,23 L0,23 L-6,18 L-7,16 L-7,7 L-2,1 Z " fill="#BAC87D" transform="translate(156,139)"/>
<path d="M0,0 L11,0 L20,4 L28,11 L33,18 L33,20 L20,20 L10,16 L2,9 L-2,3 L-2,1 Z " fill="#4A7851" transform="translate(112,245)"/>
<path d="M0,0 L3,1 L3,12 L0,22 L-8,31 L-13,34 L-16,33 L-16,21 L-13,12 L-6,4 Z " fill="#47754E" transform="translate(165,228)"/>
<path d="M0,0 L6,0 L10,4 L10,13 L6,31 L2,32 L-1,23 L-3,12 L-3,3 Z " fill="#48754D" transform="translate(190,230)"/>
<path d="M0,0 L7,0 L10,3 L10,9 L5,13 L-7,18 L-14,20 L-19,19 L-17,15 L-6,4 Z " fill="#467750" transform="translate(220,248)"/>
<path d="M0,0 L6,0 L10,4 L10,10 L6,13 L-1,12 L-3,9 L-3,3 Z " fill="#BECA7F" transform="translate(133,123)"/>
<path d="M0,0 L11,0 L17,12 L16,14 L2,7 L-1,6 Z " fill="#F4F6F3" transform="translate(76,329)"/>
<path d="M0,0 L7,1 L9,3 L9,9 L6,12 L-1,11 L-3,8 L-2,2 Z " fill="#B7C67E" transform="translate(125,21)"/>
<path d="M0,0 L5,1 L4,13 L3,19 L0,16 L-4,8 L-3,4 Z " fill="#F4F5F2" transform="translate(103,316)"/>
<path d="M0,0 L2,4 L0,13 L-2,13 L-4,17 L-5,13 L-2,1 Z " fill="#F9F7EC" transform="translate(198,357)"/>
<path d="M0,0 L1,2 L3,2 L0,12 L-4,10 L-2,9 Z " fill="#D8DED7" transform="translate(197,252)"/>
<path d="M0,0 L2,0 L0,8 L-2,8 L-2,2 Z " fill="#EFF3ED" transform="translate(200,246)"/>
<path d="M0,0 L2,4 L1,10 L0,10 L-1,5 L-2,1 Z " fill="#F6F0E0" transform="translate(198,357)"/>
<path d="M0,0 L4,1 L-1,5 L-3,5 L-1,1 Z " fill="#4F7C53" transform="translate(155,256)"/>
</svg>
